<svg version="1.1" xmlns="http://www.w3.org/2000/svg" width="1024" height="1024" viewBox="0 0 1024 1024">
<title></title>
<g id="ico-terminal">
</g>
<path d="M0 204.8c0-56.554 45.846-102.4 102.4-102.4v0h819.2c56.554 0 102.4 45.846 102.4 102.4v0 614.4c0 56.554-45.846 102.4-102.4 102.4v0h-819.2c-56.554 0-102.4-45.846-102.4-102.4v0-614.4zM921.6 204.8h-819.2v614.4h819.2v-614.4zM216.678 376.832c9.457-11.286 23.558-18.411 39.323-18.411 12.502 0 23.956 4.48 32.846 11.923l-0.080-0.066 153.6 128c11.285 9.457 18.409 23.558 18.409 39.322s-7.125 29.865-18.33 39.257l-0.079 0.065-153.6 128c-8.956 7.866-20.774 12.665-33.712 12.665-28.277 0-51.2-22.923-51.2-51.2 0-16.202 7.526-30.647 19.274-40.029l0.102-0.079 106.394-88.678-106.394-88.678c-11.286-9.457-18.411-23.558-18.411-39.323 0-12.502 4.48-23.956 11.923-32.846l-0.066 0.080zM460.8 665.6c0-28.277 22.923-51.2 51.2-51.2v0h256c28.277 0 51.2 22.923 51.2 51.2s-22.923 51.2-51.2 51.2v0h-256c-28.277 0-51.2-22.923-51.2-51.2v0z"></path>
</svg>
